# xmcd CD database file
#
# Track frame offsets:
#	182
#	24370
#	41052
#	76832
#	102440
#	117107
#	140095
#	169232
#	194082
#	208892
#	228430
#	248912
#	263070
#	289907
#	304265
#
# Disc length: 4459 seconds
#
# Revision: 2
# Processed by: cddbd v1.5.1PL2 Copyright (c) Steve Scherf et al.
# Submitted via: CDex 1.50
#
DISCID=de11690f
DTITLE=Compilation - Salsa 'La Musica Que Se Fume' CD3
DYEAR=1994
DGENRE=Salsa
TTITLE0=Los Van Van-Eso Que Anda
TTITLE1=Irakere-Bacalo Con Pan
TTITLE2=NG La Banda-Che Viva Chango
TTITLE3=Orquesta Aragon-Aprende Muchacho
TTITLE4=Benny More-Mi Chiquita
TTITLE5=Adalberto Alvarez Y Su Son-El Mal De La Hipocresia
TTITLE6=Original De Manzanillo-Via Libre Que Vienne La Original
TTITLE7=Reve Y Su Charangon-Changui Clave
TTITLE8=Malena Burke Y NG La Banda-Capullito De Aleli
TTITLE9=Los Van Van-Se Muere La Tia
TTITLE10=Irakere-La Semilla
TTITLE11=Celina Gonzalez-Guateque Campesino
TTITLE12=NG La Banda-Lo Que Siento Es Le-Lo-Lei
TTITLE13=Orquesta Aragon-Que Tenga Sabor
TTITLE14=Adalberto Alvarez Y Su Son-Fin De Semana
EXTD=YEAR: 1994
EXTT0=
EXTT1=
EXTT2=
EXTT3=
EXTT4=
EXTT5=
EXTT6=
EXTT7=
EXTT8=
EXTT9=
EXTT10=
EXTT11=
EXTT12=
EXTT13=
EXTT14=
PLAYORDER=
